<svg width="23" height="22" viewBox="0 0 23 22" fill="none" xmlns="http://www.w3.org/2000/svg">
<g clip-path="url(#clip0_4749_3986)">
<path d="M20.125 1.46667H17.25C17.25 0.66 16.6031 0 15.8125 0C15.0219 0 14.375 0.66 14.375 1.46667H8.625C8.625 0.66 7.97813 0 7.1875 0C6.39687 0 5.75 0.66 5.75 1.46667H2.875C1.29375 1.46667 0 2.78667 0 4.4V19.0667C0 20.68 1.29375 22 2.875 22H20.125C21.7062 22 23 20.68 23 19.0667V4.4C23 2.78667 21.7062 1.46667 20.125 1.46667ZM5.75 4.4C5.75 5.20667 6.39687 5.86667 7.1875 5.86667C7.97813 5.86667 8.625 5.20667 8.625 4.4H14.375C14.375 5.20667 15.0219 5.86667 15.8125 5.86667C16.6031 5.86667 17.25 5.20667 17.25 4.4H20.125V7.33333H2.875V4.4H5.75ZM2.875 19.0667V10.2667H20.125V19.0667H2.875Z" fill="#8C8C8C"/>
</g>
<defs>
<clipPath id="clip0_4749_3986">
<rect width="23" height="22" fill="white"/>
</clipPath>
</defs>
</svg>
